<svg width="32" height="33" viewBox="0 0 32 33" fill="none" xmlns="http://www.w3.org/2000/svg">
<rect y="0.416992" width="32" height="32" rx="16" fill="#2363D9"/>
<path d="M21.8789 9.76855L22.3984 10.2881C23 10.8896 23 11.8467 22.3984 12.4482L21.5781 13.2686L18.8984 10.5889L19.7188 9.76855C20.3203 9.16699 21.2773 9.16699 21.8789 9.76855ZM13.7031 15.7842L18.2695 11.2178L20.9492 13.8975L16.3828 18.4639C16.2188 18.6279 16 18.7646 15.7812 18.8467L13.3477 19.6396C13.1289 19.7217 12.8555 19.667 12.6914 19.4756C12.5 19.3115 12.4453 19.0381 12.5273 18.8193L13.3203 16.3857C13.4023 16.167 13.5391 15.9482 13.7031 15.7842ZM11.625 10.917H14.25C14.7148 10.917 15.125 11.3271 15.125 11.792C15.125 12.2842 14.7148 12.667 14.25 12.667H11.625C11.1328 12.667 10.75 13.0771 10.75 13.542V20.542C10.75 21.0342 11.1328 21.417 11.625 21.417H18.625C19.0898 21.417 19.5 21.0342 19.5 20.542V17.917C19.5 17.4521 19.8828 17.042 20.375 17.042C20.8398 17.042 21.25 17.4521 21.25 17.917V20.542C21.25 21.9912 20.0742 23.167 18.625 23.167H11.625C10.1758 23.167 9 21.9912 9 20.542V13.542C9 12.0928 10.1758 10.917 11.625 10.917Z" fill="#F9F9F9"/>
</svg>
