<svg width="32" height="33" viewBox="0 0 32 33" fill="none" xmlns="http://www.w3.org/2000/svg">
<rect y="0.416992" width="32" height="32" rx="16" fill="#2363D9"/>
<path d="M9 10.042H23C23.957 10.042 24.75 10.835 24.75 11.792V20.542C24.75 21.5264 23.957 22.292 23 22.292H9C8.01562 22.292 7.25 21.5264 7.25 20.542V11.792C7.25 10.835 8.01562 10.042 9 10.042ZM10.0938 13.542C9.71094 13.542 9.4375 13.8428 9.4375 14.1982V16.3857V18.1357C9.4375 18.5186 9.71094 18.792 10.0938 18.792C10.4492 18.792 10.75 18.5186 10.75 18.1357V17.042H11.625C12.582 17.042 13.375 16.2764 13.375 15.292C13.375 14.335 12.582 13.542 11.625 13.542H10.0938ZM11.625 15.7295H10.75V14.8545H11.625C11.8438 14.8545 12.0625 15.0732 12.0625 15.292C12.0625 15.5381 11.8438 15.7295 11.625 15.7295ZM13.8125 14.1982V16.3857V18.1357C13.8125 18.5186 14.0859 18.792 14.4688 18.792C14.8242 18.792 15.125 18.5186 15.125 18.1357V17.042H15.6172L16.5195 18.4912C16.7109 18.792 17.1211 18.9014 17.4219 18.71C17.75 18.5186 17.832 18.1084 17.6406 17.8076L16.9844 16.7412C17.4492 16.4404 17.75 15.8936 17.75 15.292C17.75 14.335 16.957 13.542 16 13.542H14.4688C14.0859 13.542 13.8125 13.8428 13.8125 14.1982ZM15.125 15.7295V14.8545H16C16.2188 14.8545 16.4375 15.0732 16.4375 15.292C16.4375 15.5381 16.2188 15.7295 16 15.7295H15.125ZM20.5938 13.542C19.2539 13.542 18.1875 14.6357 18.1875 15.9482V16.3857C18.1875 17.7256 19.2539 18.792 20.5938 18.792C21.9062 18.792 23 17.7256 23 16.3857V15.9482C23 14.6357 21.9062 13.542 20.5938 13.542ZM19.5 15.9482C19.5 15.3467 19.9648 14.8545 20.5938 14.8545C21.1953 14.8545 21.6875 15.3467 21.6875 15.9482V16.3857C21.6875 17.0146 21.1953 17.4795 20.5938 17.4795C19.9648 17.4795 19.5 17.0146 19.5 16.3857V15.9482Z" fill="#F9F9F9"/>
</svg>
