<svg width="32" height="33" viewBox="0 0 32 33" fill="none" xmlns="http://www.w3.org/2000/svg">
<rect y="0.416992" width="32" height="32" rx="16" fill="#2363D9"/>
<path d="M12.5 10.042C12.5 9.57715 12.8828 9.16699 13.375 9.16699C13.8398 9.16699 14.25 9.57715 14.25 10.042V10.917H17.75V10.042C17.75 9.57715 18.1328 9.16699 18.625 9.16699C19.0898 9.16699 19.5 9.57715 19.5 10.042V10.917H20.8125C21.5234 10.917 22.125 11.5186 22.125 12.2295V13.542H9.875V12.2295C9.875 11.5186 10.4492 10.917 11.1875 10.917H12.5V10.042ZM22.125 14.417V21.8545C22.125 22.5928 21.5234 23.167 20.8125 23.167H11.1875C10.4492 23.167 9.875 22.5928 9.875 21.8545V14.417H22.125Z" fill="#F9F9F9"/>
</svg>
