<svg width="18" height="15" viewBox="0 0 18 15" fill="none" xmlns="http://www.w3.org/2000/svg">
<path d="M9.625 2.09082H1.75C1.50391 2.09082 1.3125 2.30957 1.3125 2.52832V10.4033C1.3125 10.6494 1.50391 10.8408 1.75 10.8408H2.07812C2.54297 10.0752 3.39062 9.52832 4.375 9.52832C5.33203 9.52832 6.17969 10.0752 6.64453 10.8408H8.75H9.625C9.84375 10.8408 10.0625 10.6494 10.0625 10.4033V2.52832C10.0625 2.30957 9.84375 2.09082 9.625 2.09082ZM10.5 12.1533H10.2812H9.625H8.75H7C7 13.6025 5.82422 14.7783 4.375 14.7783C2.92578 14.7783 1.75 13.6025 1.75 12.1533C0.765625 12.1533 0 11.3877 0 10.4033V2.52832C0 1.57129 0.765625 0.77832 1.75 0.77832H9.625C10.582 0.77832 11.375 1.57129 11.375 2.52832V3.40332H12.5234C12.9336 3.40332 13.3164 3.56738 13.6172 3.86816L16.1602 6.41113C16.4609 6.71191 16.625 7.09473 16.625 7.50488V10.8408H16.8438C17.1992 10.8408 17.5 11.1416 17.5 11.4971C17.5 11.8799 17.1992 12.1533 16.8438 12.1533H15.75C15.75 13.6025 14.5742 14.7783 13.125 14.7783C11.6758 14.7783 10.5 13.6025 10.5 12.1533ZM15.2305 7.34082L12.6875 4.79785C12.6328 4.74316 12.5781 4.71582 12.5234 4.71582H11.375V7.34082H15.2578H15.2305ZM3.0625 12.1533C3.0625 12.6455 3.30859 13.0557 3.71875 13.3018C4.10156 13.5479 4.62109 13.5479 5.03125 13.3018C5.41406 13.0557 5.6875 12.6455 5.6875 12.1533C5.6875 11.6885 5.41406 11.2783 5.03125 11.0322C4.62109 10.7861 4.10156 10.7861 3.71875 11.0322C3.30859 11.2783 3.0625 11.6885 3.0625 12.1533ZM13.125 10.8408C12.6328 10.8408 12.2227 11.1143 11.9766 11.4971C11.7305 11.9072 11.7305 12.4268 11.9766 12.8096C12.2227 13.2197 12.6328 13.4658 13.125 13.4658C13.5898 13.4658 14 13.2197 14.2461 12.8096C14.4922 12.4268 14.4922 11.9072 14.2461 11.4971C14 11.1143 13.5898 10.8408 13.125 10.8408Z" fill="#30363C"/>
</svg>
