<svg width="30" height="86" viewBox="0 0 30 86" fill="none" xmlns="http://www.w3.org/2000/svg">
<g clip-path="url(#clip0_9033_1245)">
<circle cx="15" cy="21" r="15" fill="#2AA843"/>
<path d="M7.125 14.4062C7.125 14.0508 7.39844 13.75 7.78125 13.75H9.01172C9.61328 13.75 10.1602 14.1055 10.4062 14.625H21.6445C22.3555 14.625 22.875 15.3086 22.6836 16.0195L21.5625 20.1758C21.3438 21.0508 20.5508 21.625 19.6758 21.625H11.7734L11.9375 22.418C11.9922 22.7188 12.2656 22.9375 12.5664 22.9375H20.4688C20.8242 22.9375 21.125 23.2383 21.125 23.5938C21.125 23.9766 20.8242 24.25 20.4688 24.25H12.5664C11.6367 24.25 10.8164 23.5938 10.6523 22.6641L9.23047 15.2539C9.20312 15.1445 9.12109 15.0625 9.01172 15.0625H7.78125C7.39844 15.0625 7.125 14.7891 7.125 14.4062ZM10.625 26.4375C10.625 25.9727 10.8711 25.5625 11.2812 25.3164C11.6641 25.0703 12.1836 25.0703 12.5938 25.3164C12.9766 25.5625 13.25 25.9727 13.25 26.4375C13.25 26.9297 12.9766 27.3398 12.5938 27.5859C12.1836 27.832 11.6641 27.832 11.2812 27.5859C10.8711 27.3398 10.625 26.9297 10.625 26.4375ZM19.8125 25.125C20.2773 25.125 20.6875 25.3984 20.9336 25.7812C21.1797 26.1914 21.1797 26.7109 20.9336 27.0938C20.6875 27.5039 20.2773 27.75 19.8125 27.75C19.3203 27.75 18.9102 27.5039 18.6641 27.0938C18.418 26.7109 18.418 26.1914 18.6641 25.7812C18.9102 25.3984 19.3203 25.125 19.8125 25.125Z" fill="white"/>
</g>
<path d="M15.5 86.0039L15.5 39.9999" stroke="#CCCCCC" stroke-width="2" stroke-linecap="round" stroke-dasharray="2 4"/>
<defs>
<clipPath id="clip0_9033_1245">
<rect width="30" height="30" fill="white" transform="translate(0 6)"/>
</clipPath>
</defs>
</svg>
