<svg width="188" height="27" viewBox="0 0 188 27" fill="none" xmlns="http://www.w3.org/2000/svg">
<path d="M47.6626 19.4826V12.0535C47.6626 10.8304 47.4787 10.015 47.157 9.562C46.8352 9.10901 46.2377 8.88251 45.4104 8.88251C44.3992 8.88251 43.6638 9.1996 43.1123 9.7885C42.5607 10.3774 42.2849 11.2381 42.2849 12.3706V19.5279H40.1706V12.0988C40.1706 10.8757 39.9868 10.0603 39.665 9.60732C39.3433 9.15432 38.7457 8.92782 37.9184 8.92782C36.9532 8.92782 36.1718 9.24492 35.6203 9.83381C35.0687 10.468 34.7929 11.2834 34.7929 12.3706V19.5279H32.7246V7.43292H34.701V9.15432C35.1606 8.47483 35.7122 7.97651 36.3097 7.65942C36.9532 7.34232 37.6886 7.16113 38.5159 7.16113C39.2973 7.16113 39.9408 7.29703 40.4923 7.61413C41.0439 7.93122 41.5035 8.38422 41.8712 9.06372C42.4228 8.42952 42.9744 7.93122 43.6178 7.61413C44.2613 7.29703 44.9968 7.16113 45.8241 7.16113C46.6055 7.16113 47.2949 7.29704 47.8924 7.56884C48.49 7.84064 48.9495 8.24831 49.2253 8.7919C49.4092 9.109 49.5471 9.47141 49.593 9.8791C49.685 10.2868 49.6849 10.9663 49.6849 11.9176V12.28V19.5279H47.6626V19.4826Z" fill="white"/>
<path d="M58.8308 15.1344C58.8308 15.9951 58.4631 16.7199 57.7737 17.2635C57.0842 17.8071 56.165 18.0788 55.0619 18.0788C54.3724 18.0788 53.8209 17.8977 53.4072 17.5806C53.0395 17.2635 52.8556 16.8105 52.8556 16.1763C52.8556 15.5874 53.0394 15.1344 53.3612 14.8173C53.6829 14.5002 54.2345 14.2737 54.9699 14.1831C55.1997 14.1378 55.5674 14.0925 56.0271 14.0472C57.36 13.866 58.3252 13.6395 58.8768 13.3677V15.1344H58.8308ZM60.9451 16.8105V10.7403C60.9451 9.47196 60.5774 8.52065 59.796 7.88646C59.0147 7.29757 57.8197 6.98047 56.165 6.98047C54.6482 6.98047 53.4531 7.34289 52.5798 8.02238C51.7065 8.74717 51.2929 9.69844 51.2929 10.9215V11.0121H53.2233C53.2233 10.2873 53.4531 9.69844 53.9587 9.33605C54.4643 8.97365 55.1538 8.79245 56.119 8.79245C57.0382 8.79245 57.7277 8.92835 58.1873 9.24544C58.6469 9.56254 58.8768 10.0156 58.8768 10.6497C58.8768 11.148 58.8308 11.4651 58.7389 11.601C58.647 11.7369 58.5091 11.8728 58.2793 11.9634C58.0495 12.054 57.4059 12.1446 56.3488 12.2805C55.7513 12.3711 55.2457 12.4164 54.878 12.4164C53.4531 12.5976 52.396 13.0053 51.7065 13.6395C51.0171 14.2737 50.6494 15.1344 50.6494 16.2216C50.6494 17.3541 51.0171 18.2601 51.7065 18.8943C52.396 19.5285 53.4072 19.8455 54.6482 19.8455C55.4755 19.8455 56.2109 19.6644 56.9463 19.3473C57.6817 19.0302 58.3712 18.5318 59.0147 17.8523V17.943C59.0147 18.5318 59.1985 18.9849 59.5203 19.2567C59.842 19.5284 60.3016 19.6643 60.9451 19.7096V17.1729C60.9451 17.037 60.9451 16.9011 60.9451 16.8105Z" fill="white"/>
<path d="M71.609 13.3677C71.609 11.8728 71.2872 10.7403 70.6897 9.97021C70.0922 9.20012 69.1729 8.83772 67.9319 8.83772C66.7828 8.83772 65.8636 9.24541 65.2201 10.1061C64.5766 10.9215 64.2549 12.0993 64.2549 13.6395C64.2549 14.9984 64.5766 16.0856 65.2201 16.901C65.8636 17.6711 66.7828 18.0788 67.9319 18.0788C69.081 18.0788 70.0002 17.6711 70.5977 16.8557C71.2872 15.9951 71.609 14.8626 71.609 13.3677ZM73.5394 2.81289V19.4831H71.563V17.9429C71.0574 18.5771 70.4599 19.0301 69.7704 19.3472C69.1269 19.6643 68.3915 19.8002 67.5642 19.8002C65.9095 19.8002 64.6225 19.2113 63.6573 18.0788C62.6921 16.901 62.1865 15.3608 62.1865 13.413C62.1865 11.4198 62.6921 9.83432 63.6573 8.70183C64.6225 7.52404 65.9555 6.93514 67.5642 6.93514C68.4375 6.93514 69.1729 7.07104 69.8623 7.38813C70.5058 7.70523 71.1034 8.15821 71.563 8.79241V2.76758H73.5394V2.81289Z" fill="white"/>
<path d="M76.8947 12.3254H83.6512C83.6512 11.193 83.3754 10.3322 82.7779 9.69805C82.2264 9.06385 81.3991 8.79206 80.3419 8.79206C79.3307 8.79206 78.5033 9.10915 77.9518 9.69805C77.3543 10.2869 76.9866 11.193 76.8947 12.3254ZM83.6053 15.587H85.6277C85.3978 16.9007 84.8003 17.9879 83.881 18.7579C82.9158 19.528 81.7208 19.8904 80.2499 19.8904C78.5493 19.8904 77.2164 19.3469 76.2052 18.2144C75.24 17.0819 74.7344 15.5417 74.7344 13.5938C74.7344 11.51 75.24 9.92455 76.2052 8.74677C77.1705 7.56898 78.5493 7.02539 80.2499 7.02539C81.9965 7.02539 83.3754 7.56898 84.3407 8.61087C85.3059 9.69806 85.8115 11.1929 85.8115 13.1408C85.8115 13.3673 85.8115 13.5938 85.8115 13.6844C85.8115 13.8203 85.8115 13.9109 85.7655 14.0468H76.8947C76.9406 15.3152 77.2164 16.3118 77.8599 16.9913C78.4574 17.6708 79.3307 18.0332 80.4338 18.0332C81.2611 18.0332 81.9506 17.8067 82.5021 17.399C83.0997 16.946 83.4214 16.3571 83.6053 15.587Z" fill="white"/>
<path d="M86.7773 7.38774H88.8457V19.4827H86.7773V7.38774ZM86.7773 2.8125H88.8457V5.12276H86.7773V2.8125Z" fill="white"/>
<path d="M90.5908 19.4826V7.38763H92.5673V9.562C92.889 8.74661 93.3486 8.15772 93.9002 7.75002C94.4518 7.34233 95.1412 7.16113 95.9685 7.16113C96.1064 7.16113 96.2443 7.16113 96.2903 7.16113C96.3822 7.16113 96.4282 7.16112 96.4741 7.20642V9.3355C96.4282 9.3355 96.3362 9.3355 96.2903 9.3355C96.2443 9.3355 96.1064 9.3355 95.9685 9.3355C94.8654 9.3355 94.0381 9.6526 93.4406 10.2415C92.843 10.8304 92.5673 11.6911 92.5673 12.8236V19.5732H90.5908V19.4826Z" fill="white"/>
<path d="M104.381 15.1344C104.381 15.9951 104.013 16.7199 103.323 17.2635C102.634 17.8071 101.715 18.0788 100.612 18.0788C99.9222 18.0788 99.3707 17.8977 98.957 17.5806C98.5893 17.2635 98.4054 16.8105 98.4054 16.1763C98.4054 15.5874 98.5893 15.1344 98.9111 14.8173C99.2328 14.5002 99.7843 14.2737 100.52 14.1831C100.75 14.1378 101.117 14.0925 101.577 14.0472C102.91 13.866 103.875 13.6395 104.427 13.3677V15.1344H104.381ZM106.495 16.8105V10.7403C106.495 9.47196 106.127 8.52065 105.346 7.88646C104.565 7.29757 103.369 6.98047 101.715 6.98047C100.198 6.98047 99.0029 7.34289 98.1296 8.02238C97.2563 8.74717 96.8427 9.69844 96.8427 10.9215V11.0121H98.7731C98.7731 10.2873 99.0029 9.69844 99.5085 9.33605C100.014 8.97365 100.704 8.79245 101.669 8.79245C102.588 8.79245 103.278 8.92835 103.737 9.24544C104.197 9.56254 104.427 10.0156 104.427 10.6497C104.427 11.148 104.381 11.4651 104.289 11.601C104.197 11.7369 104.059 11.8728 103.829 11.9634C103.599 12.054 102.956 12.1446 101.899 12.2805C101.301 12.3711 100.796 12.4164 100.428 12.4164C99.0029 12.5976 97.9458 13.0053 97.2563 13.6395C96.5669 14.2737 96.1992 15.1344 96.1992 16.2216C96.1992 17.3541 96.5669 18.2601 97.2563 18.8943C97.9458 19.5285 98.957 19.8455 100.198 19.8455C101.025 19.8455 101.761 19.6644 102.496 19.3473C103.232 19.0302 103.921 18.5318 104.564 17.8523V17.943C104.564 18.5318 104.748 18.9849 105.07 19.2567C105.392 19.5284 105.851 19.6643 106.495 19.7096V17.2182C106.495 17.0823 106.495 16.9464 106.495 16.8105Z" fill="white"/>
<path d="M108.195 19.4819V7.20575H111.367V8.56473C111.826 8.02114 112.332 7.56815 112.93 7.29635C113.481 7.02455 114.125 6.88867 114.814 6.88867C115.595 6.88867 116.285 7.02457 116.836 7.34167C117.388 7.61346 117.894 8.06646 118.307 8.70065C118.721 8.11176 119.272 7.65876 119.87 7.34167C120.467 7.02457 121.111 6.88867 121.846 6.88867C123.087 6.88867 124.099 7.25105 124.834 7.97584C125.569 8.70064 125.937 9.69722 125.937 10.9203V19.5272H122.628V11.5998C122.628 11.0109 122.444 10.5579 122.122 10.1955C121.8 9.87843 121.341 9.69722 120.743 9.69722C120.1 9.69722 119.594 9.92373 119.18 10.3314C118.813 10.7391 118.629 11.328 118.629 12.0528V19.4819H115.366V11.5998C115.366 11.0109 115.228 10.5126 114.906 10.1955C114.584 9.87843 114.125 9.69722 113.573 9.69722C112.929 9.69722 112.424 9.92373 112.01 10.3314C111.643 10.7391 111.459 11.328 111.459 12.0528V19.4819H108.195Z" fill="white"/>
<path d="M134.486 14.5907C134.486 15.4514 134.211 16.1309 133.705 16.6292C133.199 17.1275 132.464 17.3993 131.591 17.3993C131.085 17.3993 130.671 17.2634 130.396 16.9916C130.12 16.7198 129.936 16.3574 129.936 15.9044C129.936 15.4514 130.074 15.1343 130.304 14.8625C130.533 14.636 130.947 14.4095 131.545 14.2283C131.545 14.2283 131.912 14.1377 132.648 14.0018C133.337 13.8659 133.981 13.6394 134.532 13.4129V14.5907H134.486ZM137.658 17.2181V10.242C137.658 9.10949 137.198 8.24879 136.279 7.6599C135.36 7.071 134.027 6.75391 132.28 6.75391C130.671 6.75391 129.43 7.11631 128.557 7.84111C127.638 8.5659 127.224 9.56249 127.224 10.7856V11.0121H130.35V10.8309C130.35 10.3326 130.534 9.97017 130.901 9.69837C131.269 9.42658 131.775 9.29069 132.464 9.29069C133.199 9.29069 133.705 9.3813 134.027 9.6078C134.348 9.83429 134.486 10.1967 134.486 10.695C134.486 11.3292 133.797 11.7369 132.372 11.9181C131.82 11.9634 131.361 12.054 131.039 12.0993C129.522 12.3258 128.465 12.7335 127.822 13.3677C127.178 13.9565 126.856 14.8625 126.856 16.0403C126.856 17.3087 127.178 18.26 127.822 18.9395C128.465 19.619 129.384 19.9361 130.625 19.9361C131.545 19.9361 132.326 19.7549 133.016 19.4378C133.705 19.1207 134.257 18.6224 134.67 17.9882C134.67 18.26 134.716 18.5771 134.762 18.8036C134.808 19.0754 134.9 19.3019 135.038 19.4831H137.842V17.4446C137.658 17.3993 137.658 17.3087 137.658 17.2181Z" fill="white"/>
<path d="M141.887 13.2767C141.887 14.4998 142.117 15.451 142.577 16.1305C143.037 16.7647 143.726 17.1271 144.645 17.1271C145.519 17.1271 146.208 16.81 146.668 16.1759C147.127 15.5417 147.357 14.5903 147.357 13.322C147.357 12.1442 147.127 11.2835 146.622 10.6493C146.116 10.0151 145.427 9.698 144.553 9.698C143.726 9.698 143.083 10.0151 142.577 10.6493C142.163 11.2382 141.887 12.1442 141.887 13.2767ZM150.62 2.8125V19.4827H147.449V17.8066C146.989 18.5314 146.438 19.0297 145.84 19.3921C145.243 19.7092 144.553 19.8904 143.726 19.8904C142.209 19.8904 140.922 19.3015 140.003 18.0784C139.038 16.9006 138.578 15.3152 138.578 13.3673C138.578 11.4194 139.038 9.83392 140.003 8.61083C140.968 7.38774 142.163 6.75353 143.68 6.75353C144.461 6.75353 145.197 6.93475 145.84 7.25185C146.484 7.56894 146.989 8.06724 147.403 8.70144V2.8125H150.62Z" fill="white"/>
<path d="M155.032 12.053H159.95C159.904 11.2376 159.674 10.6034 159.261 10.1504C158.847 9.6974 158.25 9.51622 157.468 9.51622C156.733 9.51622 156.181 9.7427 155.768 10.1504C155.354 10.6034 155.124 11.2376 155.032 12.053ZM159.904 15.7675H163.214C162.892 17.0812 162.202 18.0778 161.191 18.8026C160.18 19.5274 158.939 19.8898 157.468 19.8898C155.676 19.8898 154.251 19.3009 153.194 18.0778C152.136 16.9 151.631 15.2693 151.631 13.2308C151.631 11.2376 152.136 9.65212 153.194 8.47433C154.251 7.29655 155.676 6.75293 157.468 6.75293C159.399 6.75293 160.869 7.34185 161.881 8.47433C162.938 9.60682 163.443 11.2376 163.443 13.3667C163.443 13.5932 163.443 13.7744 163.443 13.9103C163.443 14.0462 163.443 14.1367 163.397 14.2273H155.078C155.124 15.1786 155.354 15.9035 155.813 16.4017C156.227 16.9 156.871 17.1265 157.698 17.1265C158.25 17.1265 158.755 17.0359 159.123 16.8094C159.399 16.5829 159.674 16.2205 159.904 15.7675Z" fill="white"/>
<path d="M167.626 7.20703H164.271V19.4832H167.626V7.20703Z" fill="white"/>
<path d="M164.271 2.8125V5.84754H166.661L167.58 4.80566V2.8125H164.271Z" fill="white"/>
<path d="M169.143 19.4823V7.20614H172.222V9.28993C172.636 8.42924 173.187 7.84033 173.739 7.43264C174.336 7.02494 175.026 6.84375 175.807 6.84375C175.945 6.84375 176.037 6.84375 176.129 6.84375C176.221 6.84375 176.267 6.84375 176.313 6.84375V10.1959H175.21C174.29 10.1959 173.601 10.4224 173.141 10.8754C172.682 11.3284 172.452 12.0532 172.452 12.9592V19.437H169.143V19.4823Z" fill="white"/>
<path d="M183.851 14.5898C183.851 15.4505 183.575 16.1299 183.069 16.6282C182.564 17.1265 181.828 17.3983 180.955 17.3983C180.449 17.3983 180.036 17.2624 179.76 16.9906C179.484 16.7188 179.3 16.3564 179.3 15.9034C179.3 15.4504 179.438 15.1333 179.668 14.8616C179.898 14.6351 180.311 14.4085 180.909 14.2273C180.909 14.2273 181.277 14.1367 182.012 14.0008C182.701 13.865 183.345 13.6385 183.896 13.412V14.5898H183.851ZM187.068 17.2171V10.241C187.068 9.10851 186.608 8.24781 185.689 7.65892C184.77 7.07003 183.437 6.75293 181.69 6.75293C180.082 6.75293 178.841 7.11534 177.967 7.84013C177.048 8.56492 176.634 9.56151 176.634 10.7846V11.0111H179.76V10.8299C179.76 10.3316 179.944 9.96919 180.311 9.6974C180.679 9.4256 181.185 9.28972 181.874 9.28972C182.61 9.28972 183.115 9.38032 183.437 9.60682C183.759 9.83332 183.896 10.1957 183.896 10.694C183.896 11.3282 183.207 11.7359 181.782 11.9171C181.231 11.9624 180.771 12.053 180.449 12.0983C178.932 12.3248 177.875 12.7325 177.232 13.3667C176.588 13.9556 176.267 14.8615 176.267 16.0393C176.267 17.3077 176.588 18.259 177.232 18.9385C177.875 19.618 178.795 19.9351 180.036 19.9351C180.955 19.9351 181.736 19.7539 182.426 19.4368C183.115 19.1197 183.667 18.6214 184.08 17.9872C184.08 18.259 184.126 18.5761 184.172 18.8026C184.218 19.0744 184.31 19.3009 184.448 19.4821H187.298V17.9872C187.068 17.7607 187.068 17.5342 187.068 17.2171Z" fill="white"/>
<path d="M27.2085 18.7126L23.0259 2.17828C22.6122 0.638096 21.0495 -0.313183 19.4867 0.0945126L2.71019 4.21676C1.14744 4.62445 0.182229 6.16464 0.595897 7.70482L4.77853 24.2391C5.1922 25.7793 6.75492 26.7306 8.31766 26.3229L22.2905 22.8802C22.2445 22.8349 22.2445 22.7896 22.1986 22.7896C21.601 22.1554 20.8196 21.8836 19.7165 21.9289C19.7165 21.9289 19.7165 21.9289 19.6706 21.9289L11.5811 21.8383C9.37486 21.8383 8.77731 20.2981 8.73134 19.4374L8.17981 13.4579H5.97356C5.69778 13.4579 5.468 13.322 5.37607 13.0502C5.28414 12.8237 5.33007 12.5519 5.51393 12.3707L13.2817 4.98685C13.5115 4.76036 13.8792 4.76036 14.155 4.98685L22.3364 12.0536C22.5203 12.2348 22.6122 12.5066 22.5203 12.7331C22.4283 12.9596 22.1986 13.1408 21.9228 13.1408H20.2221V18.8032C20.2221 19.1656 19.9463 19.4374 19.5786 19.4374H15.8097C15.7177 19.4374 15.442 19.4827 15.1662 19.3921L13.8792 15.904L12.5923 17.8519V10.4681L17.4184 16.1305L15.1202 15.6775C15.1202 15.6775 15.5798 17.1271 15.9016 18.2143H18.9352V12.5519C18.9352 12.1895 19.2109 11.9177 19.5786 11.9177H20.2221L13.7873 6.34584L7.58227 12.2801H8.77729C9.09904 12.2801 9.37483 12.5066 9.42079 12.8689L10.0643 19.4374V19.4827C10.0643 19.6639 10.2022 20.6605 11.627 20.6605L19.7165 20.7511C21.1874 20.7058 22.3364 21.1135 23.1638 22.0195C23.3476 22.2007 23.5315 22.4272 23.6693 22.6537L25.0942 22.2913C26.6569 21.8383 27.6222 20.2528 27.2085 18.7126Z" fill="white"/>
</svg>
