<svg width="13" height="15" viewBox="0 0 13 15" fill="none" xmlns="http://www.w3.org/2000/svg">
<path d="M4.15625 1.43457V2.52832H8.09375V1.43457C8.09375 1.0791 8.36719 0.77832 8.75 0.77832C9.10547 0.77832 9.40625 1.0791 9.40625 1.43457V2.52832H10.5C11.457 2.52832 12.25 3.32129 12.25 4.27832V4.71582V6.02832V13.0283C12.25 14.0127 11.457 14.7783 10.5 14.7783H1.75C0.765625 14.7783 0 14.0127 0 13.0283V6.02832V4.71582V4.27832C0 3.32129 0.765625 2.52832 1.75 2.52832H2.84375V1.43457C2.84375 1.0791 3.11719 0.77832 3.5 0.77832C3.85547 0.77832 4.15625 1.0791 4.15625 1.43457ZM1.3125 6.02832V13.0283C1.3125 13.2744 1.50391 13.4658 1.75 13.4658H10.5C10.7188 13.4658 10.9375 13.2744 10.9375 13.0283V6.02832H1.3125Z" fill="#30363C"/>
</svg>
