<svg width="14" height="13" viewBox="0 0 14 13" fill="none" xmlns="http://www.w3.org/2000/svg">
<path d="M2.82812 0.640625L5.26562 2.51562C5.40625 2.63281 5.5 2.79688 5.5 2.96094V4.22656L8.05469 6.78125C8.73438 6.45312 9.57812 6.57031 10.1406 7.13281L12.7656 9.75781C13.0703 10.0391 13.0703 10.5312 12.7656 10.8125L11.2656 12.3125C10.9844 12.6172 10.4922 12.6172 10.2109 12.3125L7.58594 9.6875C7.02344 9.125 6.90625 8.25781 7.25781 7.57812L4.70312 5.02344H3.41406C3.25 5.02344 3.08594 4.95312 2.96875 4.8125L1.09375 2.375C0.929688 2.14062 0.953125 1.83594 1.16406 1.625L2.10156 0.6875C2.28906 0.5 2.61719 0.476562 2.82812 0.640625ZM1.53906 9.35938L4.75 6.14844L5.54688 6.94531L2.33594 10.1562C2.19531 10.2969 2.125 10.4844 2.125 10.6719C2.125 11.0703 2.45312 11.3984 2.85156 11.3984C3.03906 11.3984 3.22656 11.3281 3.36719 11.1875L6.29688 8.25781C6.27344 8.70312 6.36719 9.14844 6.57812 9.57031L4.16406 11.9844C3.8125 12.3359 3.34375 12.5234 2.85156 12.5234C1.82031 12.5234 1 11.7031 1 10.6719C1 10.1797 1.1875 9.71094 1.53906 9.35938ZM11.8516 4.36719L11.2656 4.97656C10.9844 5.25781 10.6094 5.39844 10.2109 5.39844H9.625C8.78125 5.39844 8.125 4.74219 8.125 3.89844V3.3125C8.125 2.91406 8.26562 2.53906 8.54688 2.25781L9.15625 1.67188C7.75 1.71875 6.625 2.86719 6.625 4.27344V4.29688L6.25 3.92188V2.96094C6.25 2.72656 6.17969 2.49219 6.0625 2.30469C6.71875 1.25 7.89062 0.523438 9.25 0.523438C9.8125 0.523438 10.375 0.664062 10.8672 0.898438C11.0781 1.01562 11.1016 1.29688 10.9375 1.46094L9.34375 3.05469C9.27344 3.125 9.25 3.21875 9.25 3.3125V3.92188C9.25 4.10938 9.41406 4.29688 9.625 4.29688H10.2109C10.3047 4.29688 10.3984 4.25 10.4688 4.17969L12.0625 2.58594C12.2266 2.42188 12.5078 2.44531 12.625 2.65625C12.8594 3.14844 13 3.71094 13 4.29688C13 5.53906 12.3672 6.66406 11.4062 7.34375L10.6797 6.59375C10.6562 6.57031 10.6328 6.54688 10.6094 6.52344C11.3359 6.07812 11.8281 5.28125 11.8516 4.36719Z" fill="white"/>
</svg>
