<svg width="200" height="67" viewBox="0 0 200 67" fill="none" xmlns="http://www.w3.org/2000/svg">
<mask id="mask0_4216_73197" style="mask-type:alpha" maskUnits="userSpaceOnUse" x="-16" y="-65" width="216" height="132">
<path d="M198.428 0.488074L165.096 -30.0247C164.653 -30.4301 164.053 -30.6579 163.426 -30.6579C162.8 -30.6579 162.199 -30.4301 161.756 -30.0247L129.663 -0.64523C129.219 -0.23977 128.619 -0.0119939 127.992 -0.0119939C127.366 -0.0119939 126.765 -0.23977 126.322 -0.64523L58.0151 -63.1588C57.572 -63.5642 56.9712 -63.792 56.3447 -63.792C55.7182 -63.792 55.1174 -63.5642 54.6744 -63.1588L-14.3365 0.0165863C-14.7782 0.421921 -15.0262 0.971016 -15.0264 1.54352L-15.0264 63.8321C-15.0264 64.4057 -14.7775 64.9558 -14.3344 65.3615C-13.8913 65.767 -13.2904 65.9949 -12.6638 65.9949L196.76 65.9949C197.386 65.9949 197.987 65.767 198.43 65.3614C198.873 64.9558 199.122 64.4057 199.122 63.8321L199.122 2.01933C199.122 1.73482 199.061 1.45311 198.942 1.19034C198.822 0.927589 198.648 0.688941 198.428 0.488074Z" fill="white" stroke="white" stroke-linecap="round" stroke-linejoin="round"/>
</mask>
<g mask="url(#mask0_4216_73197)">
<path d="M163.442 -32.3984L127.749 -32.3984L127.749 0.277119L163.442 0.277118L163.442 -32.3984Z" stroke="white" stroke-linecap="round" stroke-linejoin="round"/>
<path d="M133.698 0.277589C136.983 0.277589 139.646 -2.16063 139.646 -5.16833C139.646 -8.17603 136.983 -10.6143 133.698 -10.6143C130.412 -10.6143 127.749 -8.17603 127.749 -5.16833C127.749 -2.16063 130.412 0.277589 133.698 0.277589Z" stroke="white" stroke-linecap="round" stroke-linejoin="round"/>
<path d="M145.603 0.277589C148.888 0.277589 151.552 -2.16063 151.552 -5.16833C151.552 -8.17603 148.888 -10.6143 145.603 -10.6143C142.317 -10.6143 139.654 -8.17603 139.654 -5.16833C139.654 -2.16063 142.317 0.277589 145.603 0.277589Z" stroke="white" stroke-linecap="round" stroke-linejoin="round"/>
<path d="M157.498 0.277589C160.784 0.277589 163.447 -2.16063 163.447 -5.16833C163.447 -8.17603 160.784 -10.6143 157.498 -10.6143C154.213 -10.6143 151.549 -8.17603 151.549 -5.16833C151.549 -2.16063 154.213 0.277589 157.498 0.277589Z" stroke="white" stroke-linecap="round" stroke-linejoin="round"/>
<path d="M-15.0268 0.325196L20.667 0.325195L20.667 -32.3504L-15.0268 -32.3504L-15.0268 0.325196Z" stroke="white" stroke-linecap="round" stroke-linejoin="round"/>
<path d="M20.6684 -4.38965L5.37305 -4.38965L5.37305 0.277675L20.6684 0.277675L20.6684 -4.38965Z" stroke="white" stroke-linecap="round" stroke-linejoin="round"/>
<path d="M0.268362 -13.6553L-4.83008 -13.6553L-4.83008 0.32505L0.268362 0.32505L0.268362 -13.6553Z" stroke="white" stroke-linecap="round" stroke-linejoin="round"/>
<path d="M127.75 -32.3984L92.0566 -32.3984L92.0566 0.277119L127.75 0.277118L127.75 -32.3984Z" stroke="white" stroke-linecap="round" stroke-linejoin="round"/>
<path d="M127.749 65.6294L127.749 0.27832L56.3609 0.278321L56.3609 65.6294L127.749 65.6294Z" stroke="white" stroke-linecap="round" stroke-linejoin="round"/>
<path d="M127.751 0.27832L97.1553 0.27832L97.1553 28.2866L127.751 28.2866L127.751 0.27832Z" stroke="white" stroke-linecap="round" stroke-linejoin="round"/>
<path d="M76.7588 46.9602L76.7588 0.27832L56.3604 0.27832L56.3604 46.9602L56.3604 65.6338L127.748 65.6338L127.748 46.9602L76.7588 46.9602Z" stroke="white" stroke-linecap="round" stroke-linejoin="round"/>
<path d="M56.3608 32.9531L20.667 32.9531L20.667 65.6287L56.3608 65.6287L56.3608 32.9531Z" stroke="white" stroke-linecap="round" stroke-linejoin="round"/>
<path d="M29.5928 49.2952C34.5224 49.2952 38.5186 45.6369 38.5186 41.1242C38.5186 36.6114 34.5224 32.9531 29.5928 32.9531C24.6632 32.9531 20.667 36.6114 20.667 41.1242C20.667 45.6369 24.6632 49.2952 29.5928 49.2952Z" stroke="white" stroke-linecap="round" stroke-linejoin="round"/>
<path d="M47.4395 49.2952C52.3691 49.2952 56.3653 45.6369 56.3653 41.1242C56.3653 36.6114 52.3691 32.9531 47.4395 32.9531C42.5099 32.9531 38.5137 36.6114 38.5137 41.1242C38.5137 45.6369 42.5099 49.2952 47.4395 49.2952Z" stroke="white" stroke-linecap="round" stroke-linejoin="round"/>
<path d="M47.4412 43.8222C49.0696 43.8222 50.3897 42.6137 50.3897 41.123C50.3897 39.6323 49.0696 38.4238 47.4412 38.4238C45.8128 38.4238 44.4927 39.6323 44.4927 41.123C44.4927 42.6137 45.8128 43.8222 47.4412 43.8222Z" stroke="white" stroke-linecap="round" stroke-linejoin="round"/>
<path d="M29.5945 43.8222C31.2229 43.8222 32.543 42.6137 32.543 41.123C32.543 39.6323 31.2229 38.4238 29.5945 38.4238C27.9661 38.4238 26.646 39.6323 26.646 41.123C26.646 42.6137 27.9661 43.8222 29.5945 43.8222Z" stroke="white" stroke-linecap="round" stroke-linejoin="round"/>
<path d="M47.4412 60.161C49.0696 60.161 50.3897 58.9526 50.3897 57.4619C50.3897 55.9712 49.0696 54.7627 47.4412 54.7627C45.8128 54.7627 44.4927 55.9712 44.4927 57.4619C44.4927 58.9526 45.8128 60.161 47.4412 60.161Z" stroke="white" stroke-linecap="round" stroke-linejoin="round"/>
<path d="M29.5945 60.161C31.2229 60.161 32.543 58.9526 32.543 57.4619C32.543 55.9712 31.2229 54.7627 29.5945 54.7627C27.9661 54.7627 26.646 55.9712 26.646 57.4619C26.646 58.9526 27.9661 60.161 29.5945 60.161Z" stroke="white" stroke-linecap="round" stroke-linejoin="round"/>
<path d="M29.5928 65.6331C34.5224 65.6331 38.5186 61.9748 38.5186 57.4621C38.5186 52.9493 34.5224 49.291 29.5928 49.291C24.6632 49.291 20.667 52.9493 20.667 57.4621C20.667 61.9748 24.6632 65.6331 29.5928 65.6331Z" stroke="white" stroke-linecap="round" stroke-linejoin="round"/>
<path d="M47.4395 65.6331C52.3691 65.6331 56.3653 61.9748 56.3653 57.4621C56.3653 52.9493 52.3691 49.291 47.4395 49.291C42.5099 49.291 38.5137 52.9493 38.5137 57.4621C38.5137 61.9748 42.5099 65.6331 47.4395 65.6331Z" stroke="white" stroke-linecap="round" stroke-linejoin="round"/>
<path d="M92.0542 -32.3984L56.3604 -32.3984L56.3604 0.277115L92.0542 0.277115L92.0542 -32.3984Z" stroke="white" stroke-linecap="round" stroke-linejoin="round"/>
<path d="M92.0542 0.277123C89.7102 -1.86824 87.8508 -4.41529 86.5823 -7.21855C85.3137 -10.0218 84.6608 -13.0264 84.6608 -16.0607C84.6608 -19.0949 85.3137 -22.0995 86.5823 -24.9028C87.8508 -27.706 89.7102 -30.2531 92.0542 -32.3984C89.7106 -30.2527 86.9283 -28.5505 83.8661 -27.3893C80.8039 -26.228 77.5218 -25.6302 74.2073 -25.6302C70.8927 -25.6302 67.6106 -26.228 64.5484 -27.3893C61.4862 -28.5505 58.7039 -30.2527 56.3604 -32.3984C58.7043 -30.2531 60.5637 -27.706 61.8322 -24.9028C63.1008 -22.0995 63.7537 -19.0949 63.7537 -16.0607C63.7537 -13.0264 63.1008 -10.0218 61.8322 -7.21855C60.5637 -4.41529 58.7043 -1.86824 56.3604 0.277124C58.7039 -1.86863 61.4862 -3.57077 64.5484 -4.73206C67.6106 -5.89336 70.8927 -6.49108 74.2073 -6.49108C77.5218 -6.49108 80.8039 -5.89336 83.8661 -4.73206C86.9283 -3.57077 89.7106 -1.86863 92.0542 0.277123Z" stroke="white" stroke-linecap="round" stroke-linejoin="round"/>
<path d="M163.442 0.27832L127.749 0.27832L127.749 32.9539L163.442 32.9539L163.442 0.27832Z" stroke="white" stroke-linecap="round" stroke-linejoin="round"/>
<path d="M131.322 32.9539L131.322 0.27832" stroke="white" stroke-linecap="round" stroke-linejoin="round"/>
<path d="M134.889 32.9539L134.889 0.27832" stroke="white" stroke-linecap="round" stroke-linejoin="round"/>
<path d="M138.458 32.9539L138.458 0.27832" stroke="white" stroke-linecap="round" stroke-linejoin="round"/>
<path d="M142.027 32.9539L142.027 0.27832" stroke="white" stroke-linecap="round" stroke-linejoin="round"/>
<path d="M145.599 32.9539L145.599 0.27832" stroke="white" stroke-linecap="round" stroke-linejoin="round"/>
<path d="M149.167 32.9539L149.167 0.27832" stroke="white" stroke-linecap="round" stroke-linejoin="round"/>
<path d="M152.735 32.9539L152.735 0.27832" stroke="white" stroke-linecap="round" stroke-linejoin="round"/>
<path d="M156.31 32.9539L156.31 0.27832" stroke="white" stroke-linecap="round" stroke-linejoin="round"/>
<path d="M159.874 32.9539L159.874 0.27832" stroke="white" stroke-linecap="round" stroke-linejoin="round"/>
<path d="M20.6665 32.9531L56.3604 32.9531L56.3604 0.277576L20.6665 0.277577L20.6665 32.9531Z" stroke="white" stroke-linecap="round" stroke-linejoin="round"/>
<path d="M20.6489 14.2793C23.621 14.2793 23.621 16.5675 26.5932 16.5675C29.5653 16.5675 29.57 14.2793 32.5421 14.2793C35.5143 14.2793 35.519 16.5675 38.4911 16.5675C41.4632 16.5675 41.468 14.2793 44.4401 14.2793C47.4122 14.2793 47.4169 16.5675 50.3938 16.5675C53.3706 16.5675 53.3659 14.2793 56.3427 14.2793" stroke="white" stroke-linecap="round" stroke-linejoin="round"/>
<path d="M20.6489 9.6123C23.621 9.6123 23.621 11.9005 26.5932 11.9005C29.5653 11.9005 29.57 9.6123 32.5421 9.6123C35.5143 9.6123 35.519 11.9005 38.4911 11.9005C41.4632 11.9005 41.468 9.6123 44.4401 9.6123C47.4122 9.6123 47.4358 11.9005 50.4174 11.9005C53.399 11.9005 53.3895 9.6123 56.3664 9.6123" stroke="white" stroke-linecap="round" stroke-linejoin="round"/>
<path d="M20.6489 4.94531C23.621 4.94531 23.621 7.23355 26.5932 7.23355C29.5653 7.23355 29.57 4.94531 32.5421 4.94531C35.5143 4.94531 35.519 7.23355 38.4911 7.23355C41.4632 7.23355 41.468 4.94531 44.4401 4.94531C47.4122 4.94531 47.4169 7.23355 50.3938 7.23355C53.3706 7.23355 53.3659 4.94531 56.3427 4.94531" stroke="white" stroke-linecap="round" stroke-linejoin="round"/>
<path d="M20.6489 18.9473C23.621 18.9473 23.621 21.2355 26.5932 21.2355C29.5653 21.2355 29.57 18.9473 32.5421 18.9473C35.5143 18.9473 35.519 21.2355 38.4911 21.2355C41.4632 21.2355 41.468 18.9473 44.4401 18.9473C47.4122 18.9473 47.4169 21.2355 50.3938 21.2355C53.3706 21.2355 53.3659 18.9473 56.3427 18.9473" stroke="white" stroke-linecap="round" stroke-linejoin="round"/>
<path d="M20.6489 23.6182C23.621 23.6182 23.621 25.9021 26.5932 25.9021C29.5653 25.9021 29.57 23.6182 32.5421 23.6182C35.5143 23.6182 35.519 25.9021 38.4911 25.9021C41.4632 25.9021 41.468 23.6182 44.4401 23.6182C47.4122 23.6182 47.4169 25.9021 50.3938 25.9021C53.3706 25.9021 53.3659 23.6182 56.3427 23.6182" stroke="white" stroke-linecap="round" stroke-linejoin="round"/>
<path d="M20.6489 28.2861C23.621 28.2861 23.621 30.57 26.5932 30.57C29.5653 30.57 29.57 28.2861 32.5421 28.2861C35.5143 28.2861 35.519 30.57 38.4911 30.57C41.4632 30.57 41.468 28.2861 44.4401 28.2861C47.4122 28.2861 47.4169 30.57 50.3938 30.57C53.3706 30.57 53.3659 28.2861 56.3427 28.2861" stroke="white" stroke-linecap="round" stroke-linejoin="round"/>
<path d="M163.45 46.9593L183.844 65.6329L188.942 65.6329L163.45 42.292L163.45 46.9593Z" stroke="white" stroke-linecap="round" stroke-linejoin="round"/>
<path d="M163.45 42.2918L188.942 65.6327L194.041 65.6327L163.45 37.6201L163.45 42.2918Z" stroke="white" stroke-linecap="round" stroke-linejoin="round"/>
<path d="M163.45 51.6263L178.746 65.6326L183.844 65.6326L163.45 46.959L163.45 51.6263Z" stroke="white" stroke-linecap="round" stroke-linejoin="round"/>
<path d="M163.45 60.9613L168.549 65.6329L173.647 65.6329L163.45 56.2939L163.45 60.9613Z" stroke="white" stroke-linecap="round" stroke-linejoin="round"/>
<path d="M163.45 65.6326L168.549 65.6326L163.45 60.9609L163.45 65.6326Z" stroke="white" stroke-linecap="round" stroke-linejoin="round"/>
<path d="M163.45 56.2933L173.647 65.6323L178.746 65.6323L163.45 51.626L163.45 56.2933Z" stroke="white" stroke-linecap="round" stroke-linejoin="round"/>
<path d="M163.45 37.6204L194.041 65.633L199.144 65.633L163.45 32.9531L163.45 37.6204Z" stroke="white" stroke-linecap="round" stroke-linejoin="round"/>
<path d="M168.546 32.9531L199.142 60.9614L199.142 56.294L173.645 32.9531L168.546 32.9531Z" stroke="white" stroke-linecap="round" stroke-linejoin="round"/>
<path d="M183.841 32.9531L199.141 46.9594L199.141 42.2921L188.94 32.9531L183.841 32.9531Z" stroke="white" stroke-linecap="round" stroke-linejoin="round"/>
<path d="M163.45 32.9531L199.144 65.633L199.144 60.9614L168.549 32.9531L163.45 32.9531Z" stroke="white" stroke-linecap="round" stroke-linejoin="round"/>
<path d="M194.039 32.9531L188.94 32.9531L199.142 42.2921L199.142 37.6204L194.039 32.9531Z" stroke="white" stroke-linecap="round" stroke-linejoin="round"/>
<path d="M199.139 32.9531L194.036 32.9531L199.139 37.6204L199.139 32.9531Z" stroke="white" stroke-linecap="round" stroke-linejoin="round"/>
<path d="M173.644 32.9531L199.14 56.294L199.14 51.6267L178.742 32.9531L173.644 32.9531Z" stroke="white" stroke-linecap="round" stroke-linejoin="round"/>
<path d="M178.741 32.9531L199.14 51.6267L199.14 46.9594L183.84 32.9531L178.741 32.9531Z" stroke="white" stroke-linecap="round" stroke-linejoin="round"/>
<path d="M11.7336 0.27832C11.7333 0.285264 11.7333 0.29222 11.7336 0.299163L11.7336 0.27832Z" stroke="white" stroke-linecap="round" stroke-linejoin="round"/>
<path d="M11.732 32.9314C16.6537 32.9314 20.6436 29.2789 20.6436 24.7733C20.6436 20.2677 16.6537 16.6152 11.732 16.6152C6.81019 16.6152 2.82031 20.2677 2.82031 24.7733C2.82031 29.2789 6.81019 32.9314 11.732 32.9314Z" stroke="white" stroke-linecap="round" stroke-linejoin="round"/>
<path d="M11.732 16.6189C16.6537 16.6189 20.6436 12.9664 20.6436 8.46081C20.6436 3.95523 16.6537 0.302734 11.732 0.302734C6.81019 0.302734 2.82031 3.95523 2.82031 8.46081C2.82031 12.9664 6.81019 16.6189 11.732 16.6189Z" stroke="white" stroke-linecap="round" stroke-linejoin="round"/>
<path d="M-6.08983 32.9314C-1.16806 32.9314 2.82181 29.2789 2.82181 24.7733C2.82181 20.2677 -1.16806 16.6152 -6.08983 16.6152C-11.0116 16.6152 -15.0015 20.2677 -15.0015 24.7733C-15.0015 29.2789 -11.0116 32.9314 -6.08983 32.9314Z" stroke="white" stroke-linecap="round" stroke-linejoin="round"/>
<path d="M-6.08983 16.6189C-1.16806 16.6189 2.82181 12.9664 2.82181 8.46081C2.82181 3.95523 -1.16806 0.302734 -6.08983 0.302734C-11.0116 0.302734 -15.0015 3.95523 -15.0015 8.46081C-15.0015 12.9664 -11.0116 16.6189 -6.08983 16.6189Z" stroke="white" stroke-linecap="round" stroke-linejoin="round"/>
<path d="M11.7275 32.9518L11.7275 32.9268C11.7275 32.9268 11.7275 32.9435 11.7275 32.9518Z" stroke="white" stroke-linecap="round" stroke-linejoin="round"/>
<path d="M2.82147 8.43947C3.99176 8.43947 5.15059 8.22845 6.2318 7.81847C7.31301 7.40849 8.29542 6.80757 9.12295 6.05002C9.95047 5.29248 10.6069 4.39314 11.0547 3.40335C11.5026 2.41357 11.7331 1.35273 11.7331 0.281395C11.7326 0.274192 11.7326 0.266969 11.7331 0.259765L-6.08545 0.259766C-6.08499 0.266969 -6.08499 0.274192 -6.08545 0.281395C-6.08545 2.4443 -5.1472 4.51869 -3.47696 6.0485C-1.80673 7.57831 0.458771 8.43832 2.82147 8.43947V8.43947Z" stroke="white" stroke-linecap="round" stroke-linejoin="round"/>
<path d="M2.82033 24.7722C7.74209 24.7722 11.732 21.1197 11.732 16.6141C11.732 12.1085 7.74209 8.45605 2.82033 8.45605C-2.10143 8.45605 -6.09131 12.1086 -6.09131 16.6141C-6.09131 21.1197 -2.10143 24.7722 2.82033 24.7722Z" stroke="white" stroke-linecap="round" stroke-linejoin="round"/>
<path d="M2.82033 24.7686C0.457202 24.7697 -1.80878 25.6296 -3.47977 27.1593C-5.15075 28.6889 -6.09006 30.7633 -6.09131 32.9266C-6.09131 32.9266 -6.09131 32.9266 -6.09131 32.9526L11.7225 32.9526C11.7225 32.9526 11.7225 32.9526 11.7225 32.9266C11.7213 30.7648 10.7833 28.6918 9.11432 27.1623C7.44538 25.6329 5.18182 24.772 2.82033 24.7686V24.7686Z" stroke="white" stroke-linecap="round" stroke-linejoin="round"/>
<path d="M20.6498 8.44072L20.6498 0.27832L11.7334 0.27832L11.7334 0.299943C11.7372 2.4617 12.6785 4.53362 14.3505 6.06019C16.0225 7.58675 18.2883 8.44301 20.6498 8.44072V8.44072Z" stroke="white" stroke-linecap="round" stroke-linejoin="round"/>
<path d="M11.7334 16.6148C11.7334 17.6863 11.9641 18.7473 12.4123 19.7371C12.8605 20.727 13.5175 21.6262 14.3455 22.3835C15.1736 23.1407 16.1566 23.7411 17.2384 24.1504C18.3201 24.5597 19.4793 24.7697 20.6498 24.7686V24.7686L20.6498 8.43946C19.4773 8.43832 18.3162 8.64909 17.2329 9.0597C16.1496 9.4703 15.1656 10.0727 14.3372 10.8322C13.5088 11.5918 12.8523 12.4936 12.4055 13.4859C11.9587 14.4782 11.7303 15.5415 11.7334 16.6148V16.6148Z" stroke="white" stroke-linecap="round" stroke-linejoin="round"/>
<path d="M11.7334 32.9272L11.7334 32.9531L20.6498 32.9531L20.6498 24.7734C19.4795 24.7729 18.3205 24.9833 17.2391 25.3928C16.1576 25.8022 15.1749 26.4027 14.3469 27.1598C13.5189 27.917 12.862 28.816 12.4136 29.8056C11.9651 30.7951 11.734 31.8559 11.7334 32.9272V32.9272Z" stroke="white" stroke-linecap="round" stroke-linejoin="round"/>
<path d="M199.137 32.9578L199.137 0.282227L163.443 0.282227L163.443 32.9578L199.137 32.9578Z" stroke="white" stroke-linecap="round" stroke-linejoin="round"/>
<path d="M172.702 0.27832L163.45 0.27832L163.45 18.9519L172.702 18.9519L172.702 0.27832Z" stroke="white" stroke-linecap="round" stroke-linejoin="round"/>
<path d="M172.702 23.6182L163.45 23.6182L163.45 32.9528L172.702 32.9528L172.702 23.6182Z" stroke="white" stroke-linecap="round" stroke-linejoin="round"/>
<path d="M199.139 0.27832L189.887 0.27832L189.887 14.2803L199.139 14.2803L199.139 0.27832Z" stroke="white" stroke-linecap="round" stroke-linejoin="round"/>
<path d="M199.139 18.9512L189.887 18.9512L189.887 32.9531L199.139 32.9531L199.139 18.9512Z" stroke="white" stroke-linecap="round" stroke-linejoin="round"/>
<path d="M176.67 32.957L185.921 32.957L185.921 14.2834L176.67 14.2834L176.67 32.957Z" stroke="white" stroke-linecap="round" stroke-linejoin="round"/>
<path d="M176.67 9.6123L185.921 9.6123L185.921 0.277667L176.67 0.277667L176.67 9.6123Z" stroke="white" stroke-linecap="round" stroke-linejoin="round"/>
<path d="M163.442 32.9531L127.749 32.9531L127.749 65.6287L163.442 65.6287L163.442 32.9531Z" stroke="white" stroke-linecap="round" stroke-linejoin="round"/>
<path d="M145.6 49.2909C145.599 44.9575 143.718 40.8019 140.37 37.7381C137.022 34.6743 132.482 32.9531 127.749 32.9531C127.75 37.2866 129.631 41.4421 132.979 44.5059C136.327 47.5697 140.866 49.2909 145.6 49.2909Z" stroke="white" stroke-linecap="round" stroke-linejoin="round"/>
<path d="M145.6 49.291C140.866 49.291 136.327 51.0122 132.979 54.076C129.631 57.1398 127.75 61.2953 127.749 65.6288C132.482 65.6288 137.022 63.9076 140.37 60.8438C143.718 57.78 145.599 53.6245 145.6 49.291V49.291Z" stroke="white" stroke-linecap="round" stroke-linejoin="round"/>
<path d="M145.599 49.2909C150.332 49.2909 154.872 47.5696 158.219 44.5057C161.566 41.4418 163.446 37.2862 163.446 32.9531C158.713 32.9531 154.173 34.6744 150.826 37.7383C147.479 40.8023 145.599 44.9579 145.599 49.2909Z" stroke="white" stroke-linecap="round" stroke-linejoin="round"/>
<path d="M145.599 49.291C145.599 53.6241 147.479 57.7796 150.826 60.8436C154.173 63.9075 158.713 65.6288 163.446 65.6288C163.446 61.2957 161.566 57.1402 158.219 54.0762C154.872 51.0123 150.332 49.291 145.599 49.291V49.291Z" stroke="white" stroke-linecap="round" stroke-linejoin="round"/>
<path d="M20.6672 49.291L15.4412 49.291L15.4412 60.8447L2.82031 60.8447L2.82031 65.6331L20.6672 65.6331L20.6672 49.291Z" stroke="white" stroke-linecap="round" stroke-linejoin="round"/>
<path d="M15.4412 37.7416L15.4412 49.2909L20.6672 49.2909L20.6672 32.9531L2.82031 32.9531L2.82031 37.7416L15.4412 37.7416Z" stroke="white" stroke-linecap="round" stroke-linejoin="round"/>
<path d="M-9.80035 37.7416L2.82054 37.7416L2.82054 32.9531L-15.0264 32.9531L-15.0264 49.2909L-9.80035 49.2909L-9.80035 37.7416Z" stroke="white" stroke-linecap="round" stroke-linejoin="round"/>
<path d="M-9.80035 60.8447L-9.80035 49.291L-15.0264 49.291L-15.0264 65.6331L2.82054 65.6331L2.82054 60.8447L-9.80035 60.8447Z" stroke="white" stroke-linecap="round" stroke-linejoin="round"/>
<path d="M2.82108 37.7412L-9.7998 37.7412L-9.7998 49.2949L2.82108 49.2949L2.82108 37.7412Z" stroke="white" stroke-linecap="round" stroke-linejoin="round"/>
<path d="M2.82108 49.291L-9.7998 49.291L-9.7998 60.8447L2.82108 60.8447L2.82108 49.291Z" stroke="white" stroke-linecap="round" stroke-linejoin="round"/>
<path d="M15.4412 37.7412L2.82031 37.7412L2.82031 49.2949L15.4412 49.2949L15.4412 37.7412Z" stroke="white" stroke-linecap="round" stroke-linejoin="round"/>
<path d="M15.4412 49.291L2.82031 49.291L2.82031 60.8447L15.4412 60.8447L15.4412 49.291Z" stroke="white" stroke-linecap="round" stroke-linejoin="round"/>
<path d="M56.3608 -32.3984L20.667 -32.3984L20.667 0.277122L56.3608 0.277122L56.3608 -32.3984Z" stroke="white" stroke-linecap="round" stroke-linejoin="round"/>
<path d="M20.668 -16.061L38.5166 0.27832L56.3652 -16.061L38.5166 -32.4004L20.668 -16.061Z" stroke="white" stroke-linecap="round" stroke-linejoin="round"/>
<path d="M20.667 -32.3984L56.3608 0.277122" stroke="white" stroke-linecap="round" stroke-linejoin="round"/>
<path d="M20.667 0.277123L56.3608 -32.3984" stroke="white" stroke-linecap="round" stroke-linejoin="round"/>
<path d="M199.144 -32.3984L163.45 -32.3984L163.45 0.277126C163.483 -8.37985 167.254 -16.6738 173.94 -22.7952C180.627 -28.9167 189.687 -32.3688 199.144 -32.3984V-32.3984Z" stroke="white" stroke-linecap="round" stroke-linejoin="round"/>
<path d="M199.144 -29.1283L199.144 -32.3984C189.687 -32.3688 180.627 -28.9167 173.94 -22.7952C167.254 -16.6738 163.483 -8.37985 163.45 0.277126L167.022 0.277126C167.054 -7.5129 170.448 -14.9757 176.465 -20.4842C182.482 -25.9926 190.634 -29.0998 199.144 -29.1283V-29.1283Z" stroke="white" stroke-linecap="round" stroke-linejoin="round"/>
<path d="M167.02 0.27748L170.587 0.27748C170.618 -6.6464 173.636 -13.2786 178.985 -18.1745C184.333 -23.0705 191.578 -25.8336 199.141 -25.8621L199.141 -29.1279C190.632 -29.0994 182.479 -25.9922 176.462 -20.4838C170.445 -14.9754 167.051 -7.51255 167.02 0.27748Z" stroke="white" stroke-linecap="round" stroke-linejoin="round"/>
<path d="M199.143 -22.5922L199.143 -25.8623C191.58 -25.8338 184.335 -23.0707 178.987 -18.1747C173.638 -13.2788 170.62 -6.6466 170.589 0.277285L174.156 0.277285C174.19 -5.77935 176.833 -11.5791 181.512 -15.8615C186.191 -20.1438 192.527 -22.5626 199.143 -22.5922V-22.5922Z" stroke="white" stroke-linecap="round" stroke-linejoin="round"/>
<path d="M174.157 0.277636L177.729 0.277636C177.761 -4.91246 180.028 -9.88158 184.037 -13.5516C188.046 -17.2216 193.474 -19.2965 199.143 -19.326L199.143 -22.5918C192.527 -22.5622 186.191 -20.1434 181.512 -15.8611C176.834 -11.5788 174.19 -5.779 174.157 0.277636V0.277636Z" stroke="white" stroke-linecap="round" stroke-linejoin="round"/>
<path d="M199.142 -16.0603L199.142 -19.3262C193.472 -19.2966 188.044 -17.2218 184.035 -13.5518C180.026 -9.88178 177.76 -4.91266 177.728 0.277435L181.304 0.277435C181.333 -4.04607 183.221 -8.18521 186.56 -11.2433C189.899 -14.3013 194.419 -16.032 199.142 -16.0603V-16.0603Z" stroke="white" stroke-linecap="round" stroke-linejoin="round"/>
<path d="M181.305 0.276257L184.877 0.276257C184.908 -3.18075 186.422 -6.48816 189.092 -8.93272C191.763 -11.3773 195.376 -12.7631 199.152 -12.7914L199.152 -16.0615C194.428 -16.0354 189.905 -14.3057 186.564 -11.2475C183.223 -8.18917 181.334 -4.04874 181.305 0.276257V0.276257Z" stroke="white" stroke-linecap="round" stroke-linejoin="round"/>
<path d="M199.141 -9.52519L199.141 -12.791C195.365 -12.7628 191.752 -11.3769 189.081 -8.93236C186.411 -6.4878 184.897 -3.18039 184.866 0.276615L188.434 0.276615C188.464 -2.31426 189.602 -4.79108 191.604 -6.62322C193.605 -8.45535 196.311 -9.49707 199.141 -9.52519Z" stroke="white" stroke-linecap="round" stroke-linejoin="round"/>
<path d="M188.436 0.277388L192.008 0.277388C192.039 -1.44588 192.801 -3.09048 194.132 -4.30919C195.464 -5.52789 197.26 -6.22533 199.143 -6.25426L199.143 -9.52441C196.313 -9.49629 193.607 -8.45458 191.606 -6.62244C189.604 -4.79031 188.466 -2.31349 188.436 0.277388V0.277388Z" stroke="white" stroke-linecap="round" stroke-linejoin="round"/>
<path d="M199.141 -2.99212L199.141 -6.2666C197.259 -6.23767 195.462 -5.54023 194.131 -4.32152C192.8 -3.10282 192.038 -1.45822 192.006 0.265051L195.569 0.265051C195.573 -0.599997 195.951 -1.42845 196.62 -2.03892C197.29 -2.64938 198.196 -2.99213 199.141 -2.99212V-2.99212Z" stroke="white" stroke-linecap="round" stroke-linejoin="round"/>
<path d="M195.57 0.277963L199.142 0.277963L199.142 -2.99219C198.195 -2.99219 197.286 -2.64766 196.616 -2.03439C195.946 -1.42111 195.57 -0.589335 195.57 0.277963V0.277963Z" stroke="white" stroke-linecap="round" stroke-linejoin="round"/>
<path d="M198.446 0.281041L165.115 -30.2317C164.671 -30.6372 164.071 -30.865 163.444 -30.865C162.818 -30.865 162.217 -30.6372 161.774 -30.2317L129.681 -0.852263C129.238 -0.446801 128.637 -0.219027 128.01 -0.219027C127.384 -0.219027 126.783 -0.446801 126.34 -0.852263L58.0331 -63.3658C57.5901 -63.7712 56.9893 -63.999 56.3628 -63.999C55.7363 -63.999 55.1355 -63.7712 54.6924 -63.3658L-14.3184 -0.190446C-14.7601 0.214886 -15.0082 0.763986 -15.0083 1.33649L-15.0083 63.6251C-15.0083 64.1987 -14.7594 64.7488 -14.3163 65.1544C-13.8733 65.56 -13.2723 65.7879 -12.6457 65.7879L196.778 65.7879C197.404 65.7879 198.005 65.56 198.448 65.1544C198.891 64.7488 199.14 64.1987 199.14 63.6251L199.14 1.8123C199.14 1.52778 199.079 1.24608 198.96 0.983317C198.841 0.720556 198.666 0.481908 198.446 0.281041V0.281041Z" stroke="white" stroke-linecap="round" stroke-linejoin="round"/>
</g>
</svg>
